<svg width="56" height="56" viewBox="0 0 56 56" fill="none" xmlns="http://www.w3.org/2000/svg">
<g filter="url(#filter0_i_3698_3003)">
<path d="M28 36H37" stroke="#D84727" stroke-width="1.8" stroke-linecap="round" stroke-linejoin="round"/>
<path d="M32.5 19.5C32.8978 19.1022 33.4374 18.8787 34 18.8787C34.2786 18.8787 34.5544 18.9335 34.8118 19.0402C35.0692 19.1468 35.303 19.303 35.5 19.5C35.697 19.697 35.8532 19.9308 35.9598 20.1882C36.0665 20.4456 36.1213 20.7214 36.1213 21C36.1213 21.2786 36.0665 21.5544 35.9598 21.8118C35.8532 22.0692 35.697 22.303 35.5 22.5L23 35L19 36L20 32L32.5 19.5Z" stroke="#D84727" stroke-width="1.8" stroke-linecap="round" stroke-linejoin="round"/>
</g>
<defs>
<filter id="filter0_i_3698_3003" x="0" y="0" width="56" height="56" filterUnits="userSpaceOnUse" color-interpolation-filters="sRGB">
<feFlood flood-opacity="0" result="BackgroundImageFix"/>
<feBlend mode="normal" in="SourceGraphic" in2="BackgroundImageFix" result="shape"/>
<feColorMatrix in="SourceAlpha" type="matrix" values="0 0 0 0 0 0 0 0 0 0 0 0 0 0 0 0 0 0 127 0" result="hardAlpha"/>
<feOffset dy="-1"/>
<feComposite in2="hardAlpha" operator="arithmetic" k2="-1" k3="1"/>
<feColorMatrix type="matrix" values="0 0 0 0 0.894118 0 0 0 0 0.894118 0 0 0 0 0.937255 0 0 0 1 0"/>
<feBlend mode="normal" in2="shape" result="effect1_innerShadow_3698_3003"/>
</filter>
</defs>
</svg>
