<svg width="56" height="56" viewBox="0 0 56 56" fill="none" xmlns="http://www.w3.org/2000/svg">
<g filter="url(#filter0_i_3698_3015)">
<path d="M28 29C28.5523 29 29 28.5523 29 28C29 27.4477 28.5523 27 28 27C27.4477 27 27 27.4477 27 28C27 28.5523 27.4477 29 28 29Z" fill="#1A1A1A" stroke="#1A1A1A" stroke-linecap="round" stroke-linejoin="round"/>
<path d="M28 22C28.5523 22 29 21.5523 29 21C29 20.4477 28.5523 20 28 20C27.4477 20 27 20.4477 27 21C27 21.5523 27.4477 22 28 22Z" fill="#BDBCDB" stroke="#1A1A1A" stroke-linecap="round" stroke-linejoin="round"/>
<path d="M28 36C28.5523 36 29 35.5523 29 35C29 34.4477 28.5523 34 28 34C27.4477 34 27 34.4477 27 35C27 35.5523 27.4477 36 28 36Z" fill="#1A1A1A" stroke="#1A1A1A" stroke-linecap="round" stroke-linejoin="round"/>
</g>
<defs>
<filter id="filter0_i_3698_3015" x="0" y="0" width="56" height="56" filterUnits="userSpaceOnUse" color-interpolation-filters="sRGB">
<feFlood flood-opacity="0" result="BackgroundImageFix"/>
<feBlend mode="normal" in="SourceGraphic" in2="BackgroundImageFix" result="shape"/>
<feColorMatrix in="SourceAlpha" type="matrix" values="0 0 0 0 0 0 0 0 0 0 0 0 0 0 0 0 0 0 127 0" result="hardAlpha"/>
<feOffset dy="-1"/>
<feComposite in2="hardAlpha" operator="arithmetic" k2="-1" k3="1"/>
<feColorMatrix type="matrix" values="0 0 0 0 0.894118 0 0 0 0 0.894118 0 0 0 0 0.937255 0 0 0 1 0"/>
<feBlend mode="normal" in2="shape" result="effect1_innerShadow_3698_3015"/>
</filter>
</defs>
</svg>
