<svg width="41" height="38" viewBox="0 0 41 38" fill="none" xmlns="http://www.w3.org/2000/svg">
<path fill-rule="evenodd" clip-rule="evenodd" d="M28.2384 24.9714L40.4215 36.1974C40.7376 36.499 40.7331 36.9784 40.4113 37.2749C40.0896 37.5714 39.5693 37.5755 39.242 37.2842L27.0589 26.0583C20.6483 31.3758 10.8068 31.019 4.86952 25.2537C-1.06775 19.4885 -0.938633 10.4142 5.16063 4.79432C11.2599 -0.82556 21.1082 -0.944529 27.3653 4.52608C33.6224 9.9967 34.0096 19.0647 28.2384 24.9714ZM2.29369 15.2195C2.29369 22.4359 8.64279 28.286 16.4748 28.286C24.303 28.2776 30.6467 22.4324 30.6559 15.2195C30.6559 8.00308 24.3068 2.153 16.4748 2.153C8.64279 2.153 2.29369 8.00308 2.29369 15.2195Z" fill="#666666"/>
</svg>
