<svg width="25" height="24" viewBox="0 0 25 24" fill="none" xmlns="http://www.w3.org/2000/svg">
<path d="M8.15564 2C6.36564 3.15 5.15564 5.18 5.15564 7.5C5.15564 9.82 6.36564 11.85 8.18564 13C5.11564 13 2.65564 10.54 2.65564 7.5C2.65564 6.04131 3.2351 4.64236 4.26655 3.61091C5.298 2.57946 6.69695 2 8.15564 2ZM19.7256 3.5L21.1556 4.93L5.58564 20.5L4.15564 19.07L19.7256 3.5ZM13.5456 5.93L12.0656 5L10.6256 6L11.0456 4.3L9.65564 3.24L11.4056 3.12L11.9856 1.47L12.6556 3.1L14.3856 3.13L13.0356 4.26L13.5456 5.93ZM10.2456 9.54L9.08564 8.81L7.96564 9.59L8.30564 8.27L7.21564 7.44L8.57564 7.35L9.02564 6.06L9.53564 7.33L10.8956 7.36L9.84564 8.23L10.2456 9.54ZM19.6556 13.5C19.6556 14.9587 19.0762 16.3576 18.0447 17.3891C17.0133 18.4205 15.6143 19 14.1556 19C12.9356 19 11.8056 18.6 10.8956 17.93L18.5856 10.24C19.2556 11.15 19.6556 12.28 19.6556 13.5ZM15.2556 20.08L18.0256 18.93L17.7856 22.28L15.2556 20.08ZM19.5856 17.38L20.7356 14.61L22.9356 17.15L19.5856 17.38ZM20.7356 12.42L19.5956 9.64L22.9356 9.88L20.7356 12.42ZM10.2856 18.93L13.0556 20.08L10.5256 22.27L10.2856 18.93Z" fill="black"/>
</svg>
