<svg width="57" height="56" viewBox="0 0 57 56" fill="none" xmlns="http://www.w3.org/2000/svg">
<g filter="url(#filter0_i_3698_3007)">
<path d="M19.5 22H21.5H37.5" stroke="#D84727" stroke-width="1.8" stroke-linecap="round" stroke-linejoin="round"/>
<path d="M24.5 22V20C24.5 19.4696 24.7107 18.9609 25.0858 18.5858C25.4609 18.2107 25.9696 18 26.5 18H30.5C31.0304 18 31.5391 18.2107 31.9142 18.5858C32.2893 18.9609 32.5 19.4696 32.5 20V22M35.5 22V36C35.5 36.5304 35.2893 37.0391 34.9142 37.4142C34.5391 37.7893 34.0304 38 33.5 38H23.5C22.9696 38 22.4609 37.7893 22.0858 37.4142C21.7107 37.0391 21.5 36.5304 21.5 36V22H35.5Z" stroke="#D84727" stroke-width="1.8" stroke-linecap="round" stroke-linejoin="round"/>
<path d="M26.5 27V33" stroke="#D84727" stroke-width="1.8" stroke-linecap="round" stroke-linejoin="round"/>
<path d="M30.5 27V33" stroke="#D84727" stroke-width="1.8" stroke-linecap="round" stroke-linejoin="round"/>
</g>
<defs>
<filter id="filter0_i_3698_3007" x="0.5" y="0" width="56" height="56" filterUnits="userSpaceOnUse" color-interpolation-filters="sRGB">
<feFlood flood-opacity="0" result="BackgroundImageFix"/>
<feBlend mode="normal" in="SourceGraphic" in2="BackgroundImageFix" result="shape"/>
<feColorMatrix in="SourceAlpha" type="matrix" values="0 0 0 0 0 0 0 0 0 0 0 0 0 0 0 0 0 0 127 0" result="hardAlpha"/>
<feOffset dy="-1"/>
<feComposite in2="hardAlpha" operator="arithmetic" k2="-1" k3="1"/>
<feColorMatrix type="matrix" values="0 0 0 0 0.894118 0 0 0 0 0.894118 0 0 0 0 0.937255 0 0 0 1 0"/>
<feBlend mode="normal" in2="shape" result="effect1_innerShadow_3698_3007"/>
</filter>
</defs>
</svg>
